<?xml version="1.0" standalone="no"?><!DOCTYPE svg PUBLIC "-//W3C//DTD SVG 1.1//EN" "http://www.w3.org/Graphics/SVG/1.1/DTD/svg11.dtd"><svg t="1513061329825" class="icon" style="" viewBox="0 0 1024 1024" version="1.1" xmlns="http://www.w3.org/2000/svg" p-id="1841" xmlns:xlink="http://www.w3.org/1999/xlink" width="200" height="200"><defs><style type="text/css"></style></defs><path d="M905.097 763.712c2.184 7.262 3.751 16.398 4.998 27.096 1.252 10.385 1.875 21.396 1.875 32.094s-0.623 21.083-2.499 30.532c-1.561 9.449-4.06 16.711-7.262 21.396-2.19 3.124-8.205 6.325-18.515 9.449-10.315 3.124-23.278 6.013-38.356 8.512-15.387 2.811-32.421 4.997-50.935 7.574-18.509 2.498-37.104 4.373-55.927 6.013-18.829 1.561-36.795 2.811-54.372 4.06-17.262 0.937-32.729 1.562-45.932 1.562-13.2 0-28.276-0.624-45.619-1.562-16.951-1.249-34.918-2.498-53.431-4.06-18.513-1.562-36.793-3.436-54.681-4.997a1123.554 1123.554 0 0 1-49.682-6.325c-15.076-2.499-27.653-4.686-38.042-7.262-10.39-2.498-16.639-4.685-19.53-6.95-4.062-3.749-7.577-14.759-10.389-33.344-2.499-18.584-1.875-42.479 2.5-71.448 2.499-17.023 9.452-29.595 20.153-38.107 10.702-8.512 23.592-15.383 38.356-20.771 14.764-5.388 29.84-9.761 45.62-13.822 15.701-4.06 29.527-9.76 41.48-17.96 9.452-6.325 16.638-12.26 21.716-17.335 4.999-5.387 8.514-10.698 11.014-15.696 2.499-5.387 3.438-11.01 3.438-16.711 0-5.7-0.313-12.26-0.937-19.834-1.25-10.386-4.688-18.898-11.014-25.144-6.249-6.013-13.202-11.948-20.779-17.961-3.75-3.124-6.952-7.575-9.764-13.509-2.812-5.7-5.312-11.634-7.577-17.335-2.187-6.325-4.062-13.509-6.249-21.396-3.125-1.25-6.249-2.812-9.452-4.686-2.813-2.187-5.312-5.387-8.202-9.448-3.125-4.06-5.625-10.073-8.203-17.335-2.812-7.262-3.749-14.446-3.125-21.084 0.626-6.638 1.875-11.948 4.062-16.398 2.187-5.388 4.999-10.073 8.515-14.134-0.313-17.023 0.313-34.281 2.499-51.615a397.445 397.445 0 0 1 9.764-46.538c4.374-16.09 11.327-31.157 21.092-44.983 8.514-12.568 17.888-22.957 28.59-30.842 10.39-7.885 21.403-14.135 32.418-18.583 11.092-4.454 22.419-7.576 33.434-9.137 11.014-1.561 21.717-2.499 31.718-2.499 27.023 0 50.929 5.701 72.332 16.708 21.093 11.013 36.795 22.963 46.87 35.531 11.642 14.449 20.156 30.219 25.776 48.179 5.626 17.651 9.457 34.285 12.265 49.431 2.813 17.959 3.751 35.841 3.128 53.8 2.499 2.187 4.997 4.998 7.262 8.512 1.567 3.123 3.128 7.262 4.374 12.26 1.252 4.997 1.567 11.323 0.314 18.585-1.246 9.448-3.122 17.335-6.324 22.957-3.128 5.7-6.25 10.386-9.458 13.509-3.745 3.748-7.885 6.013-12.574 7.262-2.184 7.887-4.06 15.07-6.33 21.396-2.184 5.7-4.683 11.635-7.891 17.335-3.122 5.7-6.639 10.073-10.075 12.572-4.06 3.748-8.199 6.95-11.636 9.449-3.436 2.811-6.25 5.387-9.143 8.199-2.813 2.811-4.997 6.324-6.638 9.76-1.875 3.748-3.437 8.199-4.374 13.508-0.938 6.95-1.561 13.822-1.252 21.084 0.315 7.262 1.875 14.134 4.997 20.771 3.128 6.95 8.205 13.508 15.393 19.834 7.262 6.325 16.948 11.947 29.836 16.711 11.018 4.686 23.283 8.823 36.795 12.26 13.517 3.435 26.405 7.575 38.979 12.26 12.579 4.686 23.592 11.011 33.358 18.272 10.001 9.295 16.874 18.743 21.248 30.378z m-422.84-146.023c-1.25 6.013-2.5 10.386-4.062 13.509-1.563 3.124-5.312 6.637-11.014 10.386-13.827 8.512-28.591 15.383-44.292 20.459-16.014 5.388-31.09 11.01-45.62 17.335-14.452 6.325-27.028 14.759-38.042 25.145-10.702 10.386-17.576 24.832-20.154 44.041-0.937 6.013-1.562 11.635-1.875 17.023-0.313 5.7-0.626 10.698-1.25 15.383-0.625 0.937-1.25 1.874-1.562 2.812-0.313 0.937-0.937 1.562-1.563 2.811a1959.09 1959.09 0 0 1-62.571-5.7 1406.761 1406.761 0 0 1-58.196-7.262c-17.576-2.811-32.731-5.388-44.994-7.887-12.265-2.499-19.842-5.31-22.966-7.887-4.688-3.748-8.203-14.759-10.702-33.343-2.5-18.585-1.563-42.479 2.812-72.074 2.5-16.398 9.452-28.971 20.154-37.794 11.014-8.512 23.591-15.696 38.667-20.459 14.764-4.997 29.84-9.76 45.62-13.822 15.701-4.06 29.527-10.073 41.479-17.335 9.453-6.325 16.639-12.26 22.029-17.335 4.999-5.387 8.515-10.698 10.702-16.398 2.187-5.7 3.125-11.323 3.125-17.023 0-5.7-0.313-12.26-0.937-18.898-0.937-10.698-4.687-18.897-10.702-25.144-5.937-6.013-12.889-12.26-20.153-18.584-4.062-2.812-7.89-6.95-10.702-12.572-2.812-5.7-5.312-11.635-7.577-17.335-2.187-6.325-4.062-13.509-6.249-21.396-3.125-1.248-6.249-2.809-9.453-4.684-2.812-2.19-5.311-5.386-8.202-9.452-2.812-4.06-5.625-10.069-8.202-17.331-2.5-7.262-3.75-14.449-3.126-20.773 0.626-6.639 1.876-12.259 4.062-17.022 2.187-5.701 4.999-10.698 8.515-14.135-0.625-17.022 0.313-34.279 2.5-51.615 2.186-14.444 5.624-29.596 10.39-45.915 4.687-16.399 11.951-31.157 21.403-44.354 8.515-12.574 17.888-22.957 28.59-30.842 10.389-7.891 21.092-14.135 32.105-18.589 10.702-4.369 21.716-7.57 33.043-9.131 11.014-1.567 22.029-2.499 32.418-2.499 26.404 0 50.307 5.695 71.398 16.708 21.092 11.013 37.105 22.957 47.806 35.84 6.952 8.828 11.327 17.337 12.889 24.833a429.401 429.401 0 0 0 7.577 26.783c-10.077 5.701-20.779 14.449-32.028 25.771-11.327 11.321-21.092 22.957-29.84 34.593-10.39 14.758-18.514 31.157-23.904 49.117-5.312 17.96-9.14 34.593-11.952 50.055-2.5 18.583-3.75 36.779-3.75 55.364-4.062 4.685-7.577 10.073-9.452 15.696-2.187 5.387-3.436 11.635-4.062 18.584-0.625 7.262 0.626 14.759 3.125 23.271 2.813 9.136 5.625 16.086 8.515 20.459 3.125 4.686 5.937 8.512 8.827 11.01 3.125 3.123 6.249 5.387 9.452 6.325 2.187 8.512 4.062 16.398 6.249 23.895 2.187 6.325 4.688 12.885 7.577 19.522 3.125 6.637 6.64 11.323 10.702 14.758 3.749 3.123 6.64 5.701 8.515 7.887 2.187 2.186 3.749 4.06 5.311 6.013 1.25 1.874 2.187 4.373 2.5 7.575-0.779 2.178-0.153 6.318 1.097 11.627z" p-id="1842"></path></svg>